<svg x="0px" y="0px"
	 viewBox="0 0 652 652" style="enable-background:new 0 0 652 652;" xml:space="preserve">
<g>
	<g>
		<g>
			<path class="st0" d="M200,224.5L200,224.5c160.4,38.1,37.8,99.1,9,105.3c43.1-4.2,78.7-22,86.1-45.6
				C311.2,232.9,192.4,222.8,200,224.5z M224.5,249.8L224.5,249.8c-4.7-0.8-32.7,16-44,37.6c0,0,74.8,7.5,81.9-16
				C263.8,266.7,245.8,253.6,224.5,249.8z M104.8,320.3L104.8,320.3c27.5-5.6,50.2-6.2,50.2-6.2s4.3-38.2,58.2-66.7
				c7.1-3.7-33.1-7-53-1.4C153.1,248.1,109.5,277.6,104.8,320.3z M586.9,369L586.9,369l-2.7,10.3c1.8,0.4,3.5,0.7,5.1,0.9
				c1.7,0.2,3.3,0.4,4.9,0.4c5.3,0,9.6-0.9,12.9-2.6c3.3-1.8,5.6-4.3,6.7-7.8c0.6-1.7,0.7-3.1,0.2-4.4c-0.4-1.2-1.5-2.8-3.4-4.5
				c-0.2-0.2-0.6-0.6-1-1c-1.9-1.7-2.7-2.9-2.5-3.6c0.2-0.5,0.6-0.9,1.2-1.2c0.7-0.3,1.4-0.4,2.3-0.4c0.9,0,2,0.1,3.1,0.4
				c1.2,0.1,2.5,0.5,4.2,1l2.3-9.4c-1.9-0.4-3.7-0.7-5.5-1c-1.8-0.1-3.4-0.3-5-0.3c-4.3,0-8.1,1-11.3,2.7c-3.3,1.8-5.4,4-6.4,6.8
				c-0.6,1.5-0.6,3-0.1,4.3c0.4,1.3,1.5,2.9,3.1,4.7c0.4,0.4,0.9,1,1.5,1.6c1.6,1.7,2.3,2.9,2.1,3.6c-0.2,0.5-0.6,0.9-1.2,1.1
				c-0.6,0.2-1.4,0.4-2.4,0.4c-1,0-2.1-0.1-3.4-0.5C590.2,370.2,588.6,369.7,586.9,369z M588,356.1L588,356.1l3-9.2
				c-1.5-0.4-3.1-0.7-4.7-0.8c-1.5-0.2-3.2-0.3-4.9-0.3c-6.6,0-12.2,1.6-16.9,4.8c-4.8,3.1-8,7.5-10,13.3c-1.8,5.4-1.5,9.6,0.9,12.4
				c2.4,2.9,6.9,4.2,13.4,4.2c1.5,0,3.1-0.1,4.8-0.2c1.6-0.1,3.3-0.4,5-0.8l4.8-10c-1.3,0.4-2.8,0.8-4.3,1c-1.5,0.3-3.1,0.4-4.5,0.4
				c-3,0-5-0.7-6.1-1.8c-1.1-1.2-1.2-3-0.4-5.4c0.9-2.8,2.6-4.9,4.8-6.4c2.3-1.5,5-2.3,8.3-2.3c1.2,0,2.3,0.1,3.4,0.3
				C585.7,355.4,586.9,355.7,588,356.1z M529.3,379.7L529.3,379.7h13.6c2.7-7.4,5.1-13.9,7.4-19.5c2.2-5.6,4.1-10.2,5.7-13.7h-13.6
				c-2.3,6.7-4.7,12.8-6.9,18.5C533.3,370.7,531.2,375.6,529.3,379.7z M486.9,379.7L486.9,379.7h12.3c1-2.7,2.2-6,3.7-10l0.1-0.4
				l2.7-6.7l1.3,8.1c0,0.1,0.1,0.5,0.1,1c0.6,2.8,0.9,5.4,1,8h15.2c0.1-0.4,0.2-0.8,0.4-1.2c0.1-0.4,0.4-1,0.6-1.8
				c0.9-2.4,1.9-5.3,3.2-8.6c0.3-0.7,0.5-1.2,0.6-1.5l4.6-11.7c0.4-1.2,0.9-2.3,1.5-3.6c0.5-1.2,1.2-2.9,2.2-4.8h-11.6
				c-0.6,1.8-1.1,3.3-1.6,4.6c-0.4,1.3-0.9,2.3-1.2,3.1l-3.9,9.2l-2.8-17h-15.2c-0.2,0.6-0.6,1.5-1,2.6
				C493.5,364.2,489.4,374.4,486.9,379.7z M461.8,380.4L461.8,380.4c6.5,0,12.2-1.6,17-4.8c4.9-3.1,8.3-7.5,10.2-13.2
				c1.8-5.3,1.4-9.3-1.2-12.2c-2.6-2.9-7.2-4.3-13.8-4.3c-6.4,0-12,1.6-16.7,4.8c-4.8,3.2-8.1,7.5-10,13.1
				c-1.8,5.3-1.4,9.3,1.2,12.2C450.9,378.9,455.3,380.4,461.8,380.4z M460.6,363.7L460.6,363.7c0.9-2.8,2.3-4.9,4.1-6.4
				c1.8-1.5,3.8-2.2,6.1-2.2c2.3,0,3.9,0.7,4.7,2c0.8,1.3,0.7,3.2-0.1,5.7c-1,2.6-2.3,4.7-4,6.2c-1.8,1.5-3.8,2.2-6.1,2.2
				c-2.3,0-3.9-0.7-4.7-2C459.7,367.9,459.8,366.1,460.6,363.7z M405.1,379.7L405.1,379.7h12.8c0.8-2.3,1.5-4.5,2.3-6.4
				c0.7-1.9,1.2-3.4,1.6-4.4l5.2-13.5c0.7-0.1,1.2-0.1,1.7-0.2c0.5-0.1,0.9-0.1,1.2-0.1c1.5,0,2.6,0.2,3.1,0.7
				c0.5,0.4,0.6,1.1,0.3,2.1c-0.4,1-0.9,1.7-1.8,2.1c-0.8,0.5-2,0.7-3.4,0.7c-0.2,0-0.5-0.1-0.9-0.1c-0.5-0.1-0.8-0.1-1-0.1
				l-0.7,0.6c-0.4,3.6-0.7,6.9-1,10c-0.4,3-0.7,5.9-1.1,8.6h13.4c0.1-2.9,0.1-5.5,0.1-7.9c0-2.5,0.1-4.7,0.2-6.7
				c2.4-1,4.4-2.1,6-3.7c1.6-1.5,2.8-3.4,3.6-5.6c0.5-1.7,0.7-3.2,0.6-4.5c-0.2-1.3-0.7-2.4-1.7-3.1c-0.7-0.6-1.5-1-2.6-1.2
				c-1.1-0.3-3-0.4-5.8-0.4h-19.1c-2.3,6.7-4.7,12.8-6.9,18.5C409,370.7,406.9,375.6,405.1,379.7z M378.9,379.7L378.9,379.7h13.3
				c2-5.6,3.9-10.6,5.5-14.9c1.6-4.2,2.9-7.3,3.7-9.1c0.3,0,0.6,0,0.9-0.1c0.4,0,0.8,0,1.5,0h2c1.2,0,2.1,0,2.9,0.1
				c0.7,0,1.5,0.1,2.2,0.1l3.5-9.2h-32l-3.4,9.2c1.5,0,2.7-0.1,3.6-0.1c0.8-0.1,1.4-0.1,1.7-0.1c0.5,0,1.2,0,2.3,0.1c1,0,1.6,0,2,0
				l-0.3,1c-1.1,3.2-2.5,6.7-4,10.6C382.6,371.2,380.8,375.3,378.9,379.7z M376,356.1L376,356.1l3-9.2c-1.5-0.4-3.1-0.7-4.7-0.8
				c-1.6-0.2-3.2-0.3-4.9-0.3c-6.6,0-12.2,1.6-16.9,4.8c-4.7,3.1-8,7.5-10,13.3c-1.8,5.4-1.5,9.6,0.9,12.4c2.4,2.9,6.9,4.2,13.4,4.2
				c1.5,0,3.1-0.1,4.8-0.2s3.3-0.4,5-0.8l4.8-10c-1.3,0.4-2.8,0.8-4.3,1c-1.5,0.3-3.1,0.4-4.5,0.4c-3,0-5-0.7-6.1-1.8
				c-1-1.2-1.1-3-0.3-5.4c0.9-2.8,2.6-4.9,4.8-6.4c2.3-1.5,5-2.3,8.3-2.3c1.1,0,2.3,0.1,3.4,0.3C373.7,355.4,374.9,355.7,376,356.1z
				 M303,379.7L303,379.7h29.2l3.4-8.9c-1.4,0.1-2.8,0.2-4.3,0.2c-1.4,0.1-3.1,0.1-4.9,0.1h-7.1l1.6-4h4.7h2.1c1.5,0,2.8,0,3.7,0
				c1,0.1,2,0.1,2.9,0.1l3.4-8.7h-0.3c-3.9,0.2-6.4,0.3-7.1,0.3h-6.2l1.6-4h8.2c1.2,0,2.5,0,3.7,0.1c1.3,0.1,2.7,0.2,4.1,0.4
				l3.4-8.8h-29.2c-2.3,6.5-4.6,12.6-6.8,18.2C307,370.4,305,375.4,303,379.7z M272.6,379.7L272.6,379.7h27.2l3.7-9.4
				c-1.8,0.1-3.6,0.1-5.1,0.1c-1.5,0.1-3,0.1-4.4,0.1c-1.2,0-2,0-2.6,0c-0.6,0-1.1-0.1-1.6-0.1c2.1-5.9,4-10.9,5.7-15
				c1.7-4.1,3-7.1,3.9-8.9h-13.8c-2.4,6.7-4.7,13-6.9,18.5C276.6,370.7,274.5,375.6,272.6,379.7z M238.4,379.7L238.4,379.7h29.2
				l3.4-8.9c-1.4,0.1-2.8,0.2-4.2,0.2c-1.5,0.1-3.1,0.1-5,0.1h-7.1l1.7-4h4.8h2c1.5,0,2.8,0,3.8,0c0.9,0.1,2,0.1,2.9,0.1l3.3-8.7
				h-0.3c-3.9,0.2-6.3,0.3-7.1,0.3h-6.2l1.6-4h8.2c1.2,0,2.5,0,3.8,0.1c1.3,0.1,2.6,0.2,4,0.4l3.4-8.8h-29.2
				c-2.3,6.5-4.6,12.6-6.8,18.2C242.4,370.4,240.3,375.4,238.4,379.7z M184,379.7L184,379.7h12.8c0.8-2.3,1.6-4.5,2.3-6.4
				c0.7-1.9,1.2-3.4,1.6-4.4l5.2-13.5c0.7-0.1,1.2-0.1,1.7-0.2c0.5-0.1,0.9-0.1,1.2-0.1c1.6,0,2.6,0.2,3.1,0.7
				c0.5,0.4,0.6,1.1,0.3,2.1c-0.3,1-0.9,1.7-1.8,2.1c-0.9,0.5-2,0.7-3.4,0.7c-0.2,0-0.6-0.1-1-0.1c-0.4-0.1-0.8-0.1-0.9-0.1
				l-0.7,0.6c-0.4,3.6-0.7,6.9-1.1,10c-0.4,3-0.7,5.9-1.1,8.6h13.5c0-2.9,0-5.5,0.1-7.9c0.1-2.5,0.1-4.7,0.2-6.7
				c2.4-1,4.5-2.1,6.1-3.7c1.6-1.5,2.8-3.4,3.5-5.6c0.6-1.7,0.7-3.2,0.6-4.5c-0.2-1.3-0.7-2.4-1.7-3.1c-0.7-0.6-1.5-1-2.6-1.2
				c-1.1-0.3-3-0.4-5.7-0.4h-19.1c-2.4,6.7-4.7,12.8-6.9,18.5C188,370.7,185.9,375.6,184,379.7z M149.8,379.7L149.8,379.7H179
				l3.4-8.9c-1.5,0.1-2.9,0.2-4.3,0.2c-1.5,0.1-3.1,0.1-4.9,0.1h-7.1l1.6-4h4.8h2c1.5,0,2.8,0,3.8,0c1,0.1,2,0.1,2.9,0.1l3.4-8.7
				h-0.3c-3.9,0.2-6.4,0.3-7.2,0.3h-6.2l1.6-4h8.3c1.2,0,2.4,0,3.7,0.1c1.3,0.1,2.7,0.2,4.1,0.4l3.4-8.8h-29.1
				c-2.3,6.5-4.6,12.6-6.9,18.2C153.8,370.4,151.8,375.4,149.8,379.7z M125,379.7L125,379.7h14l21-33.2h-10.7l-11.8,19.6l3.5-19.6
				h-12.6L117,365.5l3.9-18.9h-11.1l-5.7,33.2h13.2l11.4-18.8L125,379.7z M74.3,380.4L74.3,380.4c6.5,0,12.2-1.6,17-4.8
				c4.9-3.1,8.3-7.5,10.2-13.2c1.8-5.3,1.4-9.3-1.2-12.2c-2.6-2.9-7.2-4.3-13.8-4.3c-6.4,0-11.9,1.6-16.7,4.8
				c-4.8,3.2-8.1,7.5-10,13.1c-1.8,5.3-1.4,9.3,1.2,12.2C63.4,378.9,67.9,380.4,74.3,380.4z M73.1,363.7L73.1,363.7
				c1-2.8,2.3-4.9,4.1-6.4c1.8-1.5,3.8-2.2,6.1-2.2c2.3,0,3.9,0.7,4.7,2c0.8,1.3,0.7,3.2-0.1,5.7c-1,2.6-2.3,4.7-4,6.2
				c-1.8,1.5-3.8,2.2-6.1,2.2c-2.3,0-3.9-0.7-4.7-2C72.3,367.9,72.3,366.1,73.1,363.7z M20.1,379.7L20.1,379.7
				c1.8-4.2,3.9-9,6.1-14.7c2.2-5.6,4.5-11.8,6.9-18.5h17.2c2.6,0,4.5,0.1,5.6,0.3c1,0.2,1.9,0.7,2.6,1.2c1,0.7,1.5,1.8,1.7,3.2
				c0.2,1.4,0,3-0.6,4.8c-1.3,3.8-3.5,6.9-6.5,9.1c-3,2.3-6.4,3.4-10.1,3.4c-0.5,0-1.1,0-1.6,0c-0.5-0.1-1-0.1-1.6-0.2l0.9-7.9
				l0.7-0.4h1.4c1,0,1.8-0.2,2.3-0.7c0.7-0.4,1.2-1.1,1.5-2c0.3-0.8,0.2-1.4-0.1-1.8c-0.4-0.4-1.1-0.5-2.2-0.5c-0.2,0-0.5,0-0.9,0
				c-0.4,0.1-0.8,0.1-1.3,0.2l-5.2,13.8c-0.4,0.8-0.9,2.3-1.6,4.2c-0.7,2-1.5,4.2-2.3,6.6H20.1z"/>
		</g>
		<g>
			<path class="st0" d="M393.3,398.9L393.3,398.9h6.9c2.9,0,5.1,0.6,6.6,2.1c1.1,1.1,1.6,2.5,1.6,4.3c0,5.3-4.5,8.4-10.7,8.4h-4.5
				l-1.9,7h-3.9L393.3,398.9z M398,410.3L398,410.3c4,0,6.5-1.7,6.5-4.6c0-0.9-0.3-1.5-0.9-2.1c-0.7-0.7-1.9-1.1-3.5-1.1h-3.9
				l-2,7.8H398z"/>
		</g>
		<g>
			<path class="st0" d="M410.6,413.9L410.6,413.9c0-1.2,0.2-2.3,0.5-3.5l3.1-11.5h3.9l-3.2,12c-0.2,0.7-0.4,1.5-0.4,2.4
				c0,2.5,1.6,4.2,4.6,4.2c1.6,0,3-0.6,4.1-1.7c1-1,1.9-2.5,2.4-4.5l3.3-12.5h3.9l-3.5,13c-0.7,2.8-1.8,4.9-3.4,6.4
				c-1.8,1.8-4.2,2.7-7.2,2.7C413.6,421.1,410.6,418.3,410.6,413.9z"/>
		</g>
		<g>
			<path class="st0" d="M438.2,398.9L438.2,398.9h8c3,0,5.2,0.7,6.6,2.1c1,1,1.6,2.4,1.6,4.1c0,2.1-0.7,3.7-2,5
				c-1.2,1.3-3.1,2.2-5.4,2.6l4,8h-4.4l-3.7-7.6h-4.5l-2,7.6h-3.9L438.2,398.9z M444.1,409.8L444.1,409.8c2.3,0,4.1-0.6,5.1-1.7
				c0.7-0.7,1.1-1.5,1.1-2.6c0-0.8-0.3-1.5-0.8-2c-0.7-0.7-1.9-1-3.6-1h-4.8l-2,7.3H444.1z"/>
		</g>
		<g>
			<polygon class="st0" points="460.8,398.9 460.8,398.9 476.8,398.9 475.8,402.4 463.6,402.4 462.1,408.1 472.9,408.1 472,411.5 
				461.2,411.5 459.6,417.3 472,417.3 471.1,420.8 454.8,420.8 			"/>
		</g>
		<g>
			<polygon class="st0" points="490.7,398.9 490.7,398.9 506.7,398.9 505.8,402.4 493.6,402.4 492,408.1 502.9,408.1 501.9,411.5 
				491.1,411.5 489.6,417.3 501.9,417.3 501,420.8 484.8,420.8 			"/>
		</g>
		<g>
			<polygon class="st0" points="511.3,398.9 511.3,398.9 514.8,398.9 522.2,414.4 526.4,398.9 530.1,398.9 524.3,420.8 521.1,420.8 
				513.5,404.9 509.2,420.8 505.4,420.8 			"/>
		</g>
		<g>
			<polygon class="st0" points="535.8,398.9 535.8,398.9 551.8,398.9 550.9,402.4 538.7,402.4 537.1,408.1 548,408.1 547,411.5 
				536.2,411.5 534.7,417.3 547,417.3 546.1,420.8 529.9,420.8 			"/>
		</g>
		<g>
			<path class="st0" d="M556.4,398.9L556.4,398.9h7.9c3.1,0,5.2,0.7,6.7,2.1c1,1,1.5,2.4,1.5,4.1c0,2.1-0.7,3.7-2,5
				c-1.2,1.3-3.1,2.2-5.5,2.6l4.1,8h-4.4l-3.8-7.6h-4.5l-2,7.6h-3.8L556.4,398.9z M562.2,409.8L562.2,409.8c2.3,0,4.2-0.6,5.2-1.7
				c0.7-0.7,1.1-1.5,1.1-2.6c0-0.8-0.3-1.5-0.8-2c-0.7-0.7-1.9-1-3.7-1h-4.8l-2,7.3H562.2z"/>
		</g>
		<g>
			<path class="st0" d="M574.7,411.7L574.7,411.7c0-6.7,5.8-13.2,13.5-13.2c4.6,0,7.2,1.8,8.6,3.9l-2.9,2.4c-1.3-1.5-3-2.8-6.1-2.8
				c-5.3,0-9.2,4.6-9.2,9.5c0,3.9,2.6,6.1,6.2,6.1c2,0,3.5-0.6,4.6-1.2l1.4-4.6h-5.6l0.9-3.3h9.3l-3,10.4c-2.2,1.3-4.7,2.2-7.8,2.2
				C579.6,421.2,574.7,418,574.7,411.7z"/>
		</g>
		<g>
			<polygon class="st0" points="604,412.1 604,412.1 599.2,398.9 603.5,398.9 606.8,408.8 615.4,398.9 620.1,398.9 607.8,412.5 
				605.6,420.8 601.8,420.8 			"/>
		</g>
	</g>
</g>
</svg>
